<?xml version="1.0" standalone="no"?>
<!DOCTYPE svg PUBLIC "-//W3C//DTD SVG 20010904//EN"
 "http://www.w3.org/TR/2001/REC-SVG-20010904/DTD/svg10.dtd">
<svg version="1.0" xmlns="http://www.w3.org/2000/svg"
 width="1024.000000pt" height="1024.000000pt" viewBox="0 0 1024.000000 1024.000000"
 preserveAspectRatio="xMidYMid meet">

<g transform="translate(0.000000,1024.000000) scale(0.100000,-0.100000)"
fill="#000000" stroke="none">
<path d="M7832 8937 c-21 -22 -22 -32 -22 -195 0 -159 2 -174 20 -192 26 -26
81 -26 105 0 15 17 17 40 17 197 -1 169 -2 179 -23 196 -30 24 -71 21 -97 -6z"/>
<path d="M7155 8644 c-45 -48 -36 -69 85 -197 61 -64 119 -119 130 -122 30
-10 88 20 96 49 11 47 -4 70 -119 184 -126 124 -148 134 -192 86z"/>
<path d="M8428 8553 c-126 -125 -138 -147 -100 -191 32 -39 64 -38 114 6 80
69 208 211 208 230 0 34 -38 72 -72 72 -26 0 -50 -19 -150 -117z"/>
<path d="M2355 8617 c-278 -79 -474 -274 -532 -530 l-17 -74 -72 -7 c-104 -8
-174 -38 -244 -103 -139 -129 -155 -289 -40 -403 84 -85 30 -81 1051 -78 l894
3 76 36 c173 83 256 217 247 399 -14 255 -233 414 -489 354 -23 -5 -28 -1 -52
48 -77 156 -240 287 -432 348 -107 34 -284 37 -390 7z m359 -168 c88 -27 180
-85 246 -156 53 -56 85 -112 135 -231 24 -57 51 -63 118 -26 94 52 227 35 293
-38 43 -47 58 -90 58 -163 0 -82 -15 -116 -78 -180 -79 -79 -28 -75 -1014 -75
l-874 0 -29 29 c-23 24 -29 38 -29 74 0 94 88 161 210 162 36 0 86 -3 112 -7
73 -12 88 7 99 118 13 144 63 254 157 347 159 156 386 212 596 146z"/>
<path d="M7740 8421 c-194 -63 -324 -205 -365 -399 -18 -85 -18 -139 0 -225
49 -232 268 -408 510 -407 144 1 268 53 374 158 161 160 197 390 95 601 -36
73 -150 187 -230 228 -120 63 -271 81 -384 44z m303 -176 c70 -35 140 -108
176 -185 22 -47 26 -69 26 -150 0 -82 -4 -103 -27 -152 -34 -74 -112 -152
-186 -186 -47 -22 -71 -27 -137 -27 -157 0 -272 72 -338 212 -28 60 -32 78
-31 153 0 131 54 239 155 311 94 67 254 78 362 24z"/>
<path d="M4910 8208 c-100 -73 -239 -175 -309 -226 -69 -51 -162 -119 -206
-151 -44 -31 -159 -115 -255 -186 -191 -140 -645 -472 -945 -690 -104 -76
-212 -154 -240 -175 -27 -20 -114 -83 -191 -139 -162 -117 -181 -135 -190
-179 -6 -27 -1 -37 29 -67 21 -21 45 -35 59 -35 23 0 94 44 179 111 20 16 40
29 43 29 3 0 6 -601 6 -1335 0 -734 -3 -1335 -6 -1335 -3 0 -26 18 -52 39 -95
79 -212 121 -335 121 -215 0 -388 -109 -479 -300 -35 -73 -47 -89 -63 -87 -20
2 -20 10 -23 376 l-2 373 22 -5 c177 -43 338 -27 465 45 129 73 222 172 285
303 82 172 91 388 20 509 l-20 34 24 60 c60 148 50 322 -26 473 -49 96 -120
169 -246 254 -14 10 -14 21 0 114 40 267 -57 498 -268 639 -99 66 -178 93
-296 99 -251 13 -472 -121 -581 -352 -39 -82 -58 -161 -65 -272 l-7 -94 -38
-19 c-57 -30 -153 -113 -214 -187 -264 -320 -259 -825 11 -1126 27 -30 34 -45
34 -80 0 -23 7 -71 16 -107 49 -208 216 -387 417 -445 54 -16 182 -17 287 -3
l25 3 0 -304 0 -304 -49 -14 c-105 -31 -219 -131 -274 -239 -39 -78 -56 -152
-56 -245 l-1 -77 -59 -6 c-109 -11 -211 -90 -264 -204 -24 -50 -27 -69 -27
-157 1 -98 7 -123 52 -206 2 -4 -11 -9 -30 -13 -65 -12 -93 -81 -51 -127 l19
-21 1330 6 c1463 7 1498 8 1995 38 515 32 981 30 1415 -5 378 -31 505 -46 505
-58 0 -5 -9 -9 -20 -9 -76 0 -532 -106 -760 -177 -488 -151 -969 -398 -1216
-626 l-59 -54 -100 3 c-631 16 -1217 88 -1610 199 -170 48 -396 134 -403 154
-7 21 280 141 453 189 206 58 262 65 503 66 240 1 234 0 249 55 9 36 -9 74
-42 90 -46 23 -293 27 -440 7 -224 -30 -452 -99 -697 -212 -224 -102 -268
-133 -268 -186 0 -39 41 -79 129 -129 265 -148 618 -246 1124 -314 706 -94
2372 -109 3392 -30 291 23 693 75 742 96 64 27 72 97 16 135 -27 17 -33 17
-218 -9 -563 -80 -1219 -117 -2074 -117 l-525 0 63 46 c441 321 976 512 2131
760 269 58 280 62 280 116 0 41 -29 63 -110 83 -83 20 -128 53 -159 119 -41
85 -17 221 50 283 75 69 200 70 284 3 45 -36 95 -40 125 -10 16 16 20 33 20
89 0 141 66 249 178 291 172 65 339 -43 363 -234 7 -53 14 -75 30 -88 34 -29
47 -25 133 36 42 30 112 39 171 21 128 -37 213 -205 170 -335 -18 -53 -61
-111 -99 -133 -15 -8 -126 -13 -384 -17 l-364 -5 -19 -24 c-26 -32 -24 -74 5
-108 l24 -28 910 0 c909 0 911 0 939 21 47 35 44 103 -8 129 -25 14 -66 16
-260 13 -201 -3 -228 -1 -223 12 19 49 45 145 56 206 l12 72 65 17 c74 20 160
59 224 104 89 61 187 192 187 250 0 32 -43 71 -79 71 -69 0 -187 -64 -280
-152 l-54 -51 6 39 c4 21 18 120 33 219 14 99 28 182 30 184 2 2 26 -8 53 -22
87 -48 180 -32 253 43 38 39 48 59 59 107 11 52 10 64 -8 115 l-20 57 31 12
c157 66 189 280 59 388 -46 38 -103 55 -155 47 l-38 -6 0 44 c0 143 -115 257
-246 243 -30 -3 -70 -16 -90 -28 -46 -28 -92 -91 -105 -145 l-11 -41 -81 1
c-73 1 -87 -2 -130 -27 -68 -40 -100 -93 -105 -174 -3 -44 1 -77 12 -108 17
-44 77 -107 122 -127 26 -12 30 -23 13 -34 -20 -12 -59 -109 -59 -147 0 -80
44 -145 125 -183 57 -27 108 -30 148 -10 24 14 27 13 27 -3 0 -25 -38 -296
-51 -361 -19 -98 -19 -98 -51 -30 -32 66 -151 201 -200 226 -38 20 -71 18
-102 -7 -32 -25 -33 -49 -7 -151 39 -153 129 -288 226 -339 35 -19 45 -30 45
-49 0 -34 -46 -203 -65 -240 l-16 -30 -134 0 -135 0 25 40 c38 60 58 151 53
241 -6 101 -47 190 -123 264 l-55 54 0 726 c0 399 3 725 6 725 3 0 19 -9 34
-20 48 -34 139 -52 209 -41 101 16 157 57 201 144 37 75 41 166 10 236 -11 24
-20 47 -20 52 0 5 17 17 38 28 122 63 172 234 107 367 -48 98 -172 162 -265
138 l-38 -11 -5 54 c-14 136 -134 243 -273 243 -111 0 -214 -67 -255 -165
l-22 -54 -57 6 c-117 12 -229 -50 -276 -151 -27 -58 -33 -165 -12 -213 22 -52
69 -113 103 -136 l35 -24 -21 -19 c-40 -35 -69 -113 -69 -184 1 -107 51 -190
143 -237 68 -34 173 -37 233 -5 23 11 44 18 48 15 3 -4 6 -166 6 -362 l0 -356
-41 69 c-84 139 -206 243 -338 288 -50 17 -66 19 -87 9 -42 -19 -57 -72 -51
-181 9 -176 77 -321 205 -441 75 -71 191 -135 262 -147 l45 -8 3 -144 3 -145
-73 0 c-40 0 -87 -3 -103 -7 -29 -6 -31 -4 -59 55 -33 69 -112 154 -174 186
-67 34 -158 54 -216 47 l-51 -7 -2 1581 c-1 1210 1 1580 10 1580 7 0 51 -29
99 -65 100 -74 124 -83 166 -61 34 17 42 33 42 81 0 46 34 18 -569 459 -97 71
-259 190 -361 266 -102 75 -204 149 -227 166 l-43 29 0 391 0 391 -23 21 c-23
22 -29 22 -308 22 -230 0 -289 -3 -305 -14 -17 -13 -20 -31 -24 -170 l-5 -156
-131 98 c-72 53 -162 120 -200 147 -38 28 -112 81 -164 119 -149 109 -161 116
-190 116 -20 0 -81 -39 -210 -132z m377 -182 c92 -68 236 -172 319 -232 83
-60 274 -199 425 -309 150 -110 310 -227 355 -260 561 -408 706 -514 747 -548
l47 -39 0 -1676 0 -1675 -64 -66 c-68 -71 -98 -121 -117 -195 l-11 -46 -37 7
c-20 5 -70 8 -111 8 -102 -1 -181 -36 -254 -115 -71 -78 -101 -156 -100 -265
1 -75 6 -94 49 -199 7 -16 5 -18 -11 -12 -24 9 -405 52 -546 62 l-108 7 0
1008 0 1008 -26 20 c-26 21 -34 21 -725 21 l-698 0 -20 -26 c-21 -27 -21 -30
-21 -1018 l0 -992 -167 -16 c-93 -9 -169 -15 -171 -13 -2 2 7 23 20 47 19 36
23 58 22 133 0 113 -25 183 -94 258 -69 75 -124 100 -235 105 l-90 4 3 42 c2
23 -4 71 -13 106 -46 179 -187 319 -363 360 -54 12 -190 10 -224 -5 -17 -7
-18 71 -18 1558 l0 1565 293 214 c160 118 393 288 517 378 124 89 250 181 281
204 31 23 201 147 378 276 178 129 384 281 459 337 76 56 138 102 139 102 1 1
78 -55 170 -123z m1013 -264 c0 -208 -3 -262 -12 -256 -13 8 -84 59 -230 167
l-78 57 0 148 0 147 160 0 160 0 0 -263z m-4318 -1062 c258 -80 394 -371 290
-620 -18 -41 -32 -80 -32 -87 0 -21 49 -71 77 -78 39 -9 125 -69 171 -118 76
-83 122 -194 122 -295 0 -60 -26 -158 -56 -209 -30 -52 -30 -66 2 -108 38 -50
64 -128 64 -190 0 -245 -183 -473 -415 -516 -58 -11 -144 -7 -166 7 -7 4 42
61 119 138 71 72 137 142 146 156 23 34 20 74 -7 106 -43 49 -74 33 -227 -121
l-135 -135 -5 487 -5 488 -33 17 c-39 19 -86 9 -102 -22 -6 -11 -10 -139 -10
-309 0 -160 -3 -291 -8 -291 -4 0 -63 59 -130 130 -125 132 -141 142 -185 118
-32 -17 -46 -39 -47 -72 0 -25 28 -58 185 -216 l185 -186 0 -186 c0 -103 -3
-194 -6 -203 -11 -28 -73 -45 -163 -46 -96 -1 -146 13 -223 62 -120 78 -208
243 -208 394 0 56 -12 79 -84 165 -100 118 -140 244 -140 440 0 124 2 142 31
227 58 175 163 306 316 394 39 24 78 49 85 58 7 9 12 48 12 105 0 114 20 206
60 286 100 197 317 293 522 230z m6256 -1220 c86 -53 95 -168 18 -245 -21 -20
-35 -25 -79 -25 -64 0 -78 10 -112 78 -42 85 -43 112 -4 156 18 21 42 42 53
46 37 15 90 11 124 -10z m-366 -213 c40 -24 97 -93 97 -117 0 -8 -14 -42 -32
-75 l-32 -60 -58 2 c-164 6 -226 173 -95 253 43 26 74 25 120 -3z m733 -77
c27 -27 30 -37 30 -89 0 -45 -5 -64 -20 -81 -32 -36 -90 -60 -143 -60 -51 0
-72 12 -72 42 0 9 -11 43 -25 74 -14 31 -25 59 -25 63 0 9 70 54 115 73 54 24
101 16 140 -22z m-395 -126 c32 -19 60 -63 60 -94 0 -60 -71 -118 -130 -105
-48 11 -90 57 -90 100 0 47 14 71 53 95 39 24 70 25 107 4z m-233 -249 c59
-53 61 -56 53 -91 -11 -46 -62 -99 -115 -120 -34 -12 -50 -13 -82 -5 -58 16
-85 50 -91 114 -4 49 -1 57 27 90 29 32 92 64 132 66 8 1 43 -24 76 -54z m449
-24 c92 -53 107 -143 33 -205 -79 -67 -193 -37 -235 61 -24 55 -18 69 39 101
28 16 61 39 71 51 25 27 31 27 92 -8z m-2726 -1361 l0 -941 -137 8 c-76 5
-337 8 -581 8 l-442 0 0 933 0 932 580 0 580 0 0 -940z m3257 845 c30 -21 46
-77 38 -133 -10 -68 -17 -74 -89 -66 -34 3 -65 10 -70 15 -14 13 -7 108 10
140 16 31 51 59 74 59 9 0 25 -7 37 -15z m-284 -246 c42 -43 42 -50 12 -122
-14 -33 -19 -37 -51 -37 -93 0 -156 94 -110 165 37 57 92 54 149 -6z m581 -54
c34 -31 34 -74 1 -113 -28 -33 -102 -63 -134 -55 -19 5 -21 13 -21 84 0 69 2
80 22 93 35 25 100 20 132 -9z m-1542 -36 c57 -37 110 -95 157 -173 40 -66 80
-164 88 -213 l6 -36 -53 29 c-79 43 -152 119 -194 202 -43 85 -79 222 -59 222
3 0 28 -14 55 -31z m1236 -5 c35 -24 44 -59 28 -98 -38 -90 -151 -87 -171 5
-7 31 15 82 42 98 27 16 76 13 101 -5z m-6365 -109 c32 -8 75 -24 96 -34 58
-30 131 -109 164 -181 26 -55 32 -80 36 -171 4 -68 11 -112 20 -122 21 -26 72
-20 140 15 49 25 76 32 141 36 75 4 85 2 145 -27 77 -38 135 -101 167 -180 19
-48 23 -74 23 -182 0 -168 15 -185 120 -138 65 29 157 24 208 -11 101 -69 125
-208 53 -303 -61 -80 -5 -74 -803 -80 -405 -3 -713 -2 -713 3 0 5 8 11 19 15
10 3 37 23 60 44 38 35 42 43 39 77 -2 29 -9 42 -29 53 -24 13 -32 13 -75 -4
-56 -21 -150 -109 -160 -149 -3 -14 -9 -26 -13 -26 -3 0 -17 19 -31 41 -56 91
-164 160 -226 145 -30 -8 -57 -48 -52 -77 2 -14 26 -40 61 -67 54 -41 76 -71
41 -58 -9 3 -172 6 -364 6 l-348 0 -33 27 c-46 39 -69 96 -69 173 0 77 24 126
83 174 35 28 45 31 105 30 37 0 86 -4 108 -8 36 -7 45 -5 64 14 20 20 22 28
14 79 -4 31 -8 103 -8 161 0 121 14 159 90 240 80 86 204 122 324 94 93 -21
127 -10 135 45 29 186 137 313 295 347 75 17 106 16 173 -1z m6137 -104 c0 -6
49 -44 88 -67 10 -6 -32 -65 -67 -97 -48 -44 -82 -47 -116 -12 -47 46 -25 121
49 166 34 21 46 23 46 10z m356 -62 c44 -27 64 -56 64 -94 0 -38 -29 -71 -69
-80 -54 -12 -107 37 -117 106 -6 43 -5 45 32 66 48 28 49 28 90 2z"/>
<path d="M3383 6098 c2 -7 46 -133 97 -280 l93 -268 67 0 68 0 50 143 c92 259
142 405 142 411 0 3 -29 6 -64 6 l-64 0 -56 -177 c-31 -98 -61 -187 -65 -198
-6 -15 -24 27 -72 177 l-64 198 -69 0 c-50 0 -67 -3 -63 -12z"/>
<path d="M3970 5830 l0 -280 170 0 170 0 0 55 0 55 -115 0 -115 0 0 60 0 59
98 3 97 3 3 48 3 47 -100 0 -101 0 0 60 0 60 113 0 112 0 0 53 0 52 -167 3
-168 2 0 -280z"/>
<path d="M4390 5831 l0 -281 55 0 55 0 0 95 0 95 30 0 c33 0 55 -28 107 -135
l27 -55 68 0 c37 0 68 2 68 5 0 3 -28 51 -61 107 -57 95 -61 103 -43 113 89
49 118 172 62 263 -35 56 -66 66 -225 70 l-143 4 0 -281z m261 148 c16 -16 20
-28 15 -53 -10 -50 -34 -67 -102 -69 l-59 -2 -3 73 -3 72 66 0 c53 0 69 -4 86
-21z"/>
<path d="M5025 6098 c-15 -47 -147 -434 -164 -482 -12 -33 -21 -61 -21 -63 0
-1 27 -3 60 -3 l60 0 17 60 16 60 102 0 102 0 18 -60 18 -60 62 0 63 0 -78
228 c-43 125 -87 250 -97 277 l-19 50 -67 3 c-48 2 -68 -1 -72 -10z m106 -220
c16 -46 29 -89 29 -95 0 -9 -20 -13 -66 -13 -49 0 -65 3 -61 13 2 6 17 51 33
99 15 48 30 86 32 83 2 -2 17 -41 33 -87z"/>
<path d="M5593 6098 c-6 -7 -27 -65 -48 -128 -21 -63 -62 -182 -92 -264 -29
-82 -53 -150 -53 -152 0 -2 27 -4 59 -4 l59 0 19 58 20 57 100 3 100 3 17 -61
17 -60 63 0 64 0 -48 138 c-27 75 -70 200 -97 277 l-49 140 -61 3 c-40 2 -63
-1 -70 -10z m100 -226 c15 -48 27 -90 27 -94 0 -5 -30 -8 -66 -8 -49 0 -65 3
-62 13 3 6 17 49 32 95 15 45 31 82 34 82 4 0 19 -40 35 -88z"/>
<path d="M5990 5831 l0 -281 55 0 54 0 3 97 c3 92 4 96 25 98 28 2 37 -9 97
-112 l48 -83 64 0 c35 0 64 3 64 6 0 9 -101 177 -117 196 -14 16 -13 18 8 27
26 10 60 44 78 78 20 39 14 136 -11 173 -47 69 -64 75 -224 78 l-144 4 0 -281z
m252 152 c25 -22 24 -77 -3 -101 -20 -20 -111 -38 -129 -27 -6 3 -10 37 -10
76 l0 69 62 0 c43 0 67 -5 80 -17z"/>
<path d="M6426 6102 c-2 -4 -4 -29 -4 -55 l1 -47 74 0 73 0 0 -225 0 -225 60
0 60 0 0 225 0 225 70 0 70 0 0 55 0 55 -199 0 c-110 0 -202 -3 -205 -8z"/>
<path d="M4040 5104 l0 -285 58 3 57 3 3 113 3 112 94 0 95 0 0 -115 0 -116
58 3 57 3 0 280 0 280 -55 0 -55 0 -3 -112 -3 -113 -94 0 -94 0 -3 113 -3 112
-57 2 -58 1 0 -284z"/>
<path d="M4710 5370 c-96 -45 -150 -129 -158 -246 -8 -128 37 -223 135 -281
60 -35 167 -43 241 -19 216 72 245 416 46 532 -40 24 -61 29 -133 31 -71 3
-94 0 -131 -17z m206 -121 c94 -58 92 -247 -4 -302 -69 -40 -167 -19 -215 45
-29 38 -34 126 -12 183 17 45 61 88 100 98 33 9 97 -3 131 -24z"/>
<path d="M5200 5105 l0 -286 58 3 57 3 0 177 c0 97 2 174 5 171 3 -2 32 -55
65 -116 55 -103 63 -112 92 -115 31 -3 33 -1 95 115 l63 118 3 -177 2 -178 55
0 55 0 0 285 0 285 -60 0 c-70 0 -62 9 -152 -167 -29 -56 -55 -103 -58 -103
-3 0 -36 61 -73 135 l-67 135 -70 0 -70 0 0 -285z"/>
<path d="M5860 5105 l0 -285 168 2 167 3 0 54 0 54 -110 1 -110 1 0 60 0 60
98 3 97 3 0 49 0 50 -100 0 -100 0 0 55 0 55 110 0 110 0 0 60 0 60 -165 0
-165 0 0 -285z"/>
<path d="M6247 4490 l-27 -21 0 -558 c0 -487 2 -559 16 -579 15 -22 16 -22
314 -22 298 0 299 0 314 22 14 20 16 91 16 579 0 552 0 556 -21 575 -19 18
-42 19 -303 22 -274 3 -283 2 -309 -18z m483 -330 l0 -200 -180 0 -180 0 0
200 0 200 180 0 180 0 0 -200z m0 -525 l0 -175 -180 0 -180 0 0 175 0 175 180
0 180 0 0 -175z"/>
<path d="M5433 3570 c-36 -15 -58 -59 -54 -111 0 -9 12 -28 26 -43 47 -51 139
-29 166 40 13 35 -12 89 -50 108 -33 18 -55 19 -88 6z"/>
<path d="M6862 7970 c-31 -29 -33 -81 -5 -112 14 -16 37 -18 185 -18 166 0
169 0 193 25 14 13 25 36 25 50 0 14 -11 37 -25 50 -24 25 -27 25 -188 25
-150 0 -165 -2 -185 -20z"/>
<path d="M8530 7970 c-30 -30 -27 -83 6 -109 24 -19 40 -21 169 -21 78 0 156
5 172 10 52 19 64 78 25 123 -13 15 -36 17 -184 17 -155 0 -170 -2 -188 -20z"/>
<path d="M8332 7467 c-13 -14 -22 -36 -22 -56 0 -29 15 -48 115 -147 100 -100
118 -114 148 -114 58 0 91 59 61 107 -10 16 -66 74 -125 131 -115 110 -138
120 -177 79z"/>
<path d="M7237 7360 c-107 -109 -118 -123 -112 -148 10 -40 39 -65 75 -64 26
1 48 16 108 74 123 118 152 155 152 192 0 42 -26 66 -71 66 -30 0 -47 -13
-152 -120z"/>
<path d="M7859 7268 c-42 -14 -49 -46 -49 -212 0 -139 2 -154 20 -174 26 -28
73 -29 100 -2 19 19 20 31 18 192 l-3 172 -30 17 c-22 12 -37 14 -56 7z"/>
<path d="M8235 2025 c-14 -13 -25 -32 -25 -41 0 -16 83 -169 122 -226 17 -25
23 -26 98 -26 92 1 83 -7 165 128 64 104 71 143 34 172 -28 23 -82 23 -101 1
-8 -10 -32 -46 -52 -80 -21 -35 -41 -63 -45 -63 -4 0 -18 23 -32 52 -49 105
-111 137 -164 83z"/>
<path d="M6525 1891 c-47 -21 -120 -96 -159 -164 l-28 -48 -13 25 c-43 82
-146 166 -204 166 -42 0 -71 -26 -71 -64 0 -28 8 -40 59 -79 54 -43 90 -87
133 -166 17 -31 18 -31 95 -31 43 0 83 4 90 8 7 4 28 40 48 78 22 46 54 89 88
120 84 77 94 108 52 149 -29 30 -38 30 -90 6z"/>
</g>
</svg>
